<?xml version="1.0" standalone="no"?>
<!DOCTYPE svg PUBLIC "-//W3C//DTD SVG 20010904//EN"
 "http://www.w3.org/TR/2001/REC-SVG-20010904/DTD/svg10.dtd">
<svg version="1.0" xmlns="http://www.w3.org/2000/svg"
 width="220.000000pt" height="224.000000pt" viewBox="0 0 220.000000 224.000000"
 preserveAspectRatio="xMidYMid meet">
<metadata>
Created by potrace 1.10, written by Peter Selinger 2001-2011
</metadata>
<g transform="translate(0.000000,224.000000) scale(0.100000,-0.100000)"
fill="#000000" stroke="none">
<path d="M1051 2179 c-14 -5 -44 -28 -68 -50 -59 -54 -119 -79 -206 -86 -122
-9 -162 -48 -172 -164 -9 -92 -22 -131 -66 -186 -65 -81 -79 -106 -79 -145 0
-49 12 -75 55 -123 62 -69 89 -144 94 -260 0 -16 9 -41 19 -54 35 -47 65 -62
148 -70 98 -10 142 -28 213 -89 53 -45 58 -47 116 -47 58 0 64 2 111 44 71 62
114 81 210 91 131 14 170 52 180 177 6 79 36 153 86 209 80 90 80 145 -3 240
-56 65 -76 114 -84 204 -9 118 -55 163 -174 173 -83 7 -144 31 -197 80 -71 63
-125 79 -183 56z m102 -21 c12 -6 39 -26 61 -44 58 -50 122 -76 209 -85 124
-12 155 -44 167 -168 9 -89 36 -149 99 -225 33 -38 41 -56 41 -88 0 -47 -11
-69 -61 -127 -46 -52 -79 -135 -79 -199 -1 -100 -57 -162 -147 -162 -82 0
-188 -46 -242 -104 -31 -33 -86 -49 -130 -36 -18 5 -51 26 -73 46 -57 51 -134
83 -221 93 -40 5 -83 13 -94 19 -36 19 -56 63 -63 137 -8 86 -41 162 -98 228
-36 41 -42 55 -42 93 0 53 10 74 58 128 47 53 71 113 81 201 14 121 45 152
168 164 85 9 149 35 198 81 59 56 120 74 168 48z"/>
<path d="M971 2064 c-130 -35 -268 -139 -331 -249 -78 -136 -96 -305 -47 -437
67 -183 179 -291 367 -354 74 -24 215 -24 290 0 194 64 338 214 379 396 15 66
13 187 -4 254 -74 284 -377 465 -654 390z m266 -18 c168 -45 314 -184 364
-346 20 -67 27 -192 13 -266 -20 -116 -124 -263 -234 -334 -228 -146 -543 -82
-702 144 -66 94 -93 183 -92 301 1 106 20 178 70 261 68 114 186 206 304 238
70 19 210 20 277 2z"/>
<path d="M1003 2005 c-18 -8 -33 -16 -33 -19 0 -9 51 1 62 12 19 19 6 21 -29
7z"/>
<path d="M1160 2000 c-6 -11 -7 -20 -3 -20 4 0 0 -7 -10 -14 -10 -8 -15 -20
-11 -30 9 -24 24 -19 24 8 0 14 4 27 9 30 12 8 21 46 10 46 -4 0 -13 -9 -19
-20z"/>
<path d="M1210 1999 c0 -5 -4 -8 -9 -5 -5 3 -8 -17 -8 -44 0 -28 4 -50 9 -50
4 0 8 12 8 27 0 14 7 34 16 44 9 10 13 23 9 28 -8 14 -25 14 -25 0z"/>
<path d="M993 1955 c-18 -19 -16 -26 4 -18 11 4 14 3 9 -5 -4 -7 -2 -12 3 -12
6 0 11 9 11 19 0 11 6 22 13 24 6 3 3 6 -8 6 -11 0 -26 -6 -32 -14z"/>
<path d="M824 1915 c-14 -22 -14 -26 -1 -40 9 -8 24 -15 34 -15 25 0 59 25 46
33 -6 4 -13 0 -17 -8 -3 -8 -10 -15 -15 -15 -6 0 -8 7 -4 15 3 10 0 15 -8 13
-9 -2 -13 5 -12 20 3 29 -3 28 -23 -3z"/>
<path d="M1338 1933 c-10 -2 -18 -9 -18 -14 0 -5 -7 -9 -15 -9 -8 0 -15 -7
-15 -15 0 -20 6 -19 46 6 19 11 32 25 28 30 -3 5 -6 8 -7 8 -1 -1 -10 -3 -19
-6z"/>
<path d="M1368 1906 c-10 -7 -18 -19 -18 -25 0 -7 -4 -9 -10 -6 -5 3 -10 1
-10 -4 0 -6 7 -11 15 -11 8 0 15 -9 15 -21 0 -11 4 -18 8 -15 4 2 7 17 6 33 0
15 3 31 9 34 5 4 8 11 6 17 -3 7 -10 6 -21 -2z"/>
<path d="M1026 1882 c-16 -4 -31 -13 -34 -20 -3 -10 3 -11 25 -5 15 4 60 8 98
8 90 0 163 -34 231 -107 48 -52 49 -52 24 -59 -14 -4 -51 -7 -82 -8 -73 -1
-102 -13 -155 -61 -35 -33 -50 -40 -82 -40 -33 0 -49 8 -90 45 -47 40 -64 48
-140 58 -8 1 3 20 28 49 44 49 48 58 29 58 -14 0 -56 -49 -77 -88 -11 -21 -17
-22 -58 -16 -43 6 -45 6 -34 -14 6 -12 21 -28 33 -36 19 -13 21 -23 19 -94 -3
-109 24 -178 98 -253 126 -125 316 -137 459 -29 29 22 61 40 71 40 10 0 30 9
45 21 29 23 35 69 12 88 -11 10 -12 19 -4 42 16 45 5 166 -20 221 -28 64 -103
142 -167 174 -56 27 -170 40 -229 26z m401 -297 c3 -29 2 -74 -1 -99 l-7 -46
-115 0 c-110 0 -114 -1 -104 -19 11 -22 14 -81 3 -81 -15 0 -43 35 -43 55 0
18 34 66 90 126 38 40 126 143 134 157 13 23 36 -27 43 -93z m-522 73 c11 -6
39 -28 62 -49 35 -32 50 -39 83 -39 33 0 48 7 83 39 58 53 71 58 162 66 l80 7
-27 -26 c-22 -21 -37 -26 -99 -28 -40 -2 -74 -8 -76 -13 -2 -7 22 -8 67 -5 38
3 70 4 70 2 0 -2 -6 -10 -14 -18 -10 -9 -37 -14 -80 -14 -36 0 -66 -3 -66 -7
0 -5 28 -6 62 -5 56 4 61 2 49 -12 -9 -11 -32 -17 -70 -18 l-56 -1 55 -7 c61
-7 51 -18 -19 -22 -25 -2 -46 -8 -48 -13 -2 -7 13 -9 39 -7 l41 4 -31 -38
c-37 -45 -39 -62 -11 -98 11 -14 16 -26 11 -26 -17 0 -62 68 -62 95 0 15 -4
24 -10 20 -19 -12 -10 -44 21 -80 17 -19 26 -35 19 -35 -7 0 -21 11 -32 25
-11 14 -24 25 -30 25 -7 0 -1 -11 12 -25 13 -14 19 -25 12 -25 -6 0 -19 11
-30 25 l-19 24 -23 -24 c-13 -14 -28 -25 -33 -25 -6 0 0 11 13 25 13 14 18 25
12 25 -6 0 -19 -11 -28 -25 -9 -14 -23 -25 -31 -25 -10 0 -5 11 16 35 31 36
40 68 21 80 -6 4 -10 -5 -10 -21 0 -38 -46 -97 -70 -89 -10 3 -21 1 -25 -5 -4
-6 14 -10 53 -10 45 0 63 5 81 21 l22 21 23 -21 c19 -18 36 -21 139 -23 64 -2
117 -6 117 -11 0 -13 -92 -67 -135 -79 -206 -57 -415 100 -415 310 0 31 4 62
8 68 4 7 31 8 75 4 44 -3 66 -2 64 5 -2 5 -36 11 -76 13 -62 2 -77 7 -99 28
l-27 26 80 -7 c44 -4 89 -12 100 -17z m526 -249 c21 -21 19 -56 -5 -71 -6 -4
-54 -8 -107 -8 l-95 0 0 50 0 50 93 0 c80 0 96 -3 114 -21z"/>
<path d="M808 1573 c11 -16 29 -37 39 -48 87 -94 112 -142 83 -160 -5 -3 -10
-12 -10 -18 1 -20 40 34 40 54 0 10 -14 34 -31 54 l-31 35 42 0 c25 0 39 4 35
10 -3 6 -28 10 -55 10 -70 0 -72 18 -3 23 l58 3 -61 2 c-42 1 -66 7 -75 18
-12 14 -7 16 49 12 34 -1 62 0 62 5 0 4 -31 7 -70 7 -40 0 -70 4 -70 10 0 6
-5 10 -11 10 -6 0 -1 -12 9 -27z"/>
<path d="M1062 1268 c2 -12 10 -23 18 -23 22 0 19 39 -3 43 -15 3 -18 -1 -15
-20z"/>
<path d="M1110 1280 c0 -5 5 -10 10 -10 6 0 10 -5 10 -11 0 -5 -4 -7 -10 -4
-5 3 -10 1 -10 -4 0 -6 7 -11 15 -11 9 0 15 9 15 25 0 16 -6 25 -15 25 -8 0
-15 -4 -15 -10z"/>
<path d="M1245 1380 c-4 -6 28 -10 90 -10 62 0 94 4 90 10 -3 6 -44 10 -90 10
-46 0 -87 -4 -90 -10z"/>
<path d="M901 1852 c-7 -14 -6 -25 5 -40 19 -27 36 -28 58 -3 14 15 15 24 6
40 -14 26 -56 28 -69 3z"/>
<path d="M712 1823 c4 -13 2 -23 -2 -23 -4 0 -6 -9 -3 -20 3 -11 9 -20 14 -20
5 0 6 -8 3 -17 -5 -17 -5 -17 9 0 8 10 20 16 27 15 7 -2 15 3 18 11 3 10 0 12
-11 8 -12 -4 -15 -1 -11 11 5 14 3 13 -10 -2 -14 -17 -16 -17 -16 -4 0 9 5 20
10 23 13 8 13 35 -1 35 -5 0 -7 -6 -3 -12 5 -8 0 -7 -11 2 -17 14 -18 13 -13
-7z"/>
<path d="M1433 1788 c3 -9 1 -19 -6 -22 -7 -2 7 -5 31 -5 24 -1 41 3 38 8 -4
5 0 11 6 14 7 2 10 7 6 11 -3 4 -16 2 -28 -4 -16 -9 -25 -8 -38 2 -13 11 -15
11 -9 -4z"/>
<path d="M1500 1661 c0 -6 4 -12 9 -15 5 -3 7 -14 4 -24 -2 -10 3 -24 11 -31
12 -10 16 -10 16 -2 0 7 5 9 10 6 6 -3 10 -1 10 4 0 6 9 11 21 11 11 0 17 5
14 10 -4 6 -10 8 -15 5 -4 -3 -11 2 -14 11 -4 9 -13 14 -21 10 -9 -3 -18 1
-21 9 -7 17 -24 20 -24 6z"/>
<path d="M620 1611 c0 -33 4 -40 23 -43 12 -2 22 -9 22 -17 0 -8 6 -16 14 -19
11 -4 12 0 6 14 -4 11 -8 26 -9 34 -1 9 -6 21 -10 28 -12 20 -3 22 19 5 14
-10 16 -17 8 -20 -10 -4 -10 -9 -1 -26 l12 -22 6 25 c9 32 -25 73 -52 64 -10
-3 -18 -1 -18 5 0 6 -4 11 -10 11 -5 0 -10 -18 -10 -39z"/>
<path d="M1494 1378 c5 -22 3 -28 -11 -29 -10 -1 0 -5 22 -9 22 -4 41 -7 43
-5 1 1 -12 17 -29 36 l-32 34 7 -27z"/>
<path d="M696 1374 c-4 -11 -14 -15 -31 -12 -14 3 -25 1 -25 -3 0 -5 10 -9 21
-9 18 0 19 -2 9 -15 -7 -9 -10 -19 -6 -23 4 -4 12 1 17 11 6 9 22 18 37 18 18
1 21 3 9 6 -12 3 -16 10 -12 24 8 23 -10 26 -19 3z"/>
<path d="M713 1308 c-18 -11 -33 -24 -33 -29 0 -10 21 -1 55 24 31 23 14 26
-22 5z"/>
<path d="M1445 1303 c-15 -22 -15 -25 -2 -20 8 3 23 -1 34 -8 21 -16 33 -19
33 -7 0 5 -11 14 -24 22 -14 7 -22 18 -19 26 9 23 -3 16 -22 -13z"/>
<path d="M733 1271 c-28 -23 -29 -37 -4 -51 28 -14 66 18 57 48 -9 27 -24 27
-53 3z m37 -16 c0 -16 -27 -32 -37 -21 -7 7 16 36 28 36 5 0 9 -7 9 -15z"/>
<path d="M1410 1262 c0 -9 55 -52 66 -52 4 0 -5 14 -21 30 -28 30 -45 38 -45
22z"/>
<path d="M782 1209 c-13 -16 -19 -29 -15 -29 11 0 53 43 53 53 0 15 -16 5 -38
-24z"/>
<path d="M1377 1226 c-7 -19 1 -26 30 -26 20 0 23 -4 18 -21 -5 -15 -4 -19 4
-15 6 4 11 16 11 27 0 14 -7 19 -25 19 -26 0 -34 15 -12 23 7 4 6 6 -4 6 -9 1
-19 -5 -22 -13z"/>
<path d="M823 1189 c-34 -21 -45 -43 -18 -33 9 4 18 -2 23 -17 5 -12 11 -18
14 -13 8 11 22 84 17 84 -2 0 -19 -10 -36 -21z"/>
<path d="M1325 1190 c-7 -11 25 -70 38 -70 5 0 5 10 1 22 -6 20 -5 21 10 9 9
-8 20 -11 24 -7 4 4 -1 12 -11 17 -9 6 -17 17 -17 24 0 17 -35 20 -45 5z"/>
<path d="M876 1143 c-19 -40 -15 -57 5 -21 13 23 14 23 19 -12 l6 -35 17 32
c20 38 22 69 2 33 l-14 -25 -1 27 c0 41 -15 41 -34 1z"/>
<path d="M1272 1161 c-11 -7 -10 -15 5 -45 18 -34 20 -36 38 -20 19 15 19 15
1 10 -15 -5 -17 -2 -13 14 3 14 0 20 -10 20 -13 0 -13 3 -3 15 14 16 3 20 -18
6z"/>
<path d="M1229 1118 c0 -33 0 -33 -16 -10 -25 36 -35 25 -11 -13 28 -42 38
-44 38 -6 0 16 3 36 6 45 3 9 1 16 -5 16 -6 0 -11 -15 -12 -32z"/>
<path d="M994 1105 c-8 -43 7 -66 33 -49 19 12 35 61 23 69 -5 3 -11 -8 -15
-25 -10 -44 -27 -49 -24 -7 5 49 -8 58 -17 12z"/>
<path d="M1077 1124 c-10 -11 -9 -74 2 -74 12 0 21 52 12 68 -4 7 -10 9 -14 6z"/>
<path d="M1120 1104 c0 -14 -4 -23 -10 -19 -15 9 -12 -8 5 -31 13 -18 14 -15
15 29 0 26 -2 47 -5 47 -3 0 -5 -12 -5 -26z"/>
<path d="M1154 1099 c3 -17 6 -35 6 -40 0 -5 3 -9 8 -9 4 0 6 18 4 40 -2 22
-9 40 -14 40 -6 0 -8 -13 -4 -31z"/>
<path d="M2061 655 c-7 -19 -19 -35 -27 -35 -8 0 -14 -4 -14 -10 0 -5 8 -10
17 -10 16 0 16 -1 0 -17 -13 -13 -19 -14 -29 -5 -19 19 -30 14 -18 -7 15 -28
13 -33 -10 -26 -22 7 -25 -2 -9 -25 8 -13 12 -12 26 8 14 20 41 33 29 13 -3
-4 6 -6 20 -3 18 3 22 8 15 16 -12 15 9 50 40 66 22 12 26 -1 6 -22 -18 -18
-28 -48 -17 -48 12 0 50 59 50 78 0 14 -36 16 -45 2 -3 -5 -13 -10 -22 -10
-14 0 -14 3 1 25 17 26 21 45 8 45 -4 0 -14 -16 -21 -35z"/>
<path d="M1807 583 c-23 -73 -31 -82 -79 -89 -42 -7 -48 -30 -7 -27 45 3 52
-5 30 -33 -12 -15 -21 -33 -21 -40 0 -24 33 4 58 47 12 21 34 46 48 55 26 18
60 72 50 81 -3 3 -14 -5 -25 -18 -24 -30 -37 -19 -23 20 8 21 7 34 -2 46 -10
14 -14 7 -29 -42z"/>
<path d="M472 605 c-7 -14 -12 -36 -12 -49 0 -13 -10 -31 -21 -42 l-21 -19 6
35 c7 33 6 34 -9 15 -8 -10 -20 -35 -25 -54 -16 -60 18 -67 55 -11 26 39 38
38 30 -2 -4 -18 -8 -34 -9 -34 0 -1 -29 -16 -63 -33 -58 -29 -86 -51 -65 -51
6 0 30 11 53 25 53 30 69 31 69 5 0 -11 7 -20 16 -20 8 0 12 -4 9 -10 -3 -5
-15 -10 -26 -10 -10 0 -19 -4 -19 -10 0 -16 25 -11 53 10 14 11 32 20 41 20
21 0 20 7 -4 37 -28 36 -26 41 23 54 23 7 47 17 52 22 14 14 -51 0 -88 -18
-37 -18 -46 -13 -19 10 67 57 82 74 76 89 -4 9 -18 16 -33 16 -22 0 -27 5 -27
22 1 32 -28 34 -42 3z m28 -12 c0 -22 -17 -50 -25 -42 -6 7 11 59 20 59 3 0 5
-8 5 -17z m50 -36 c0 -17 -34 -49 -43 -41 -7 8 3 37 17 46 17 12 26 9 26 -5z
m-46 -142 c3 -9 -1 -18 -10 -22 -19 -7 -28 2 -21 22 8 19 23 19 31 0z"/>
<path d="M750 610 c-54 -18 -55 -18 -28 -29 22 -8 36 -6 73 10 25 11 43 24 40
30 -8 12 -19 11 -85 -11z"/>
<path d="M1174 592 c-49 -60 -51 -69 -3 -31 24 20 45 44 47 53 5 26 -11 18
-44 -22z"/>
<path d="M1297 624 c-4 -4 -7 -26 -7 -50 0 -30 -5 -44 -16 -48 -22 -9 -30 0
-15 18 13 16 -1 32 -19 21 -15 -10 -12 -52 5 -59 21 -8 19 -33 -5 -46 -11 -6
-18 -16 -14 -21 4 -6 15 -2 28 10 12 12 24 21 27 21 2 0 3 -38 1 -85 -2 -49 1
-85 6 -85 17 0 34 28 28 47 -3 10 -8 46 -11 81 -5 57 -3 64 20 84 25 22 36 78
15 78 -5 0 -10 -9 -10 -19 0 -25 -10 -51 -19 -51 -5 0 -4 21 0 48 7 45 0 70
-14 56z"/>
<path d="M225 596 c-38 -12 -81 -28 -94 -36 -22 -11 -23 -14 -8 -25 9 -7 17
-23 17 -37 0 -31 -40 -85 -50 -68 -5 8 -10 7 -19 -4 -10 -12 -9 -21 4 -45 20
-40 33 -39 37 2 3 28 6 32 31 29 22 -2 27 1 27 20 0 16 11 30 32 42 l32 19
-24 -39 c-12 -21 -36 -56 -52 -77 -17 -21 -27 -41 -24 -44 3 -4 22 1 42 11 29
13 39 14 51 5 27 -23 49 15 100 175 5 17 2 18 -25 13 -24 -5 -32 -3 -32 8 0 8
-7 15 -15 15 -34 0 -11 19 30 26 27 4 44 11 42 18 -6 18 -28 17 -102 -8z m-21
-57 l-19 -22 33 17 c28 14 32 15 32 1 0 -13 -57 -45 -81 -45 -20 0 -8 47 14
58 35 17 42 14 21 -9z m101 -26 c-4 -10 -18 -45 -30 -78 -12 -32 -28 -61 -35
-63 -8 -3 -10 0 -5 8 6 10 2 12 -13 8 -12 -4 -22 -3 -22 1 0 17 63 122 78 131
26 14 35 12 27 -7z"/>
<path d="M1467 594 c-4 -4 -7 -18 -7 -31 0 -16 -10 -30 -30 -41 -35 -20 -38
-32 -10 -32 40 0 15 -38 -40 -61 -23 -10 -24 -11 -7 -21 14 -7 23 -5 38 8 10
9 19 12 19 6 0 -6 -5 -14 -10 -17 -7 -4 -7 -13 0 -26 16 -28 30 -14 30 30 0
34 5 42 41 66 39 25 41 26 37 7 -4 -15 0 -22 18 -26 13 -4 24 -11 24 -17 0
-16 -31 -23 -51 -10 -15 9 -19 8 -19 -3 0 -7 7 -19 15 -26 13 -11 21 -9 46 9
l31 23 37 -36 c40 -39 51 -44 51 -23 0 8 -18 28 -40 46 -35 28 -39 35 -29 52
15 28 4 35 -31 22 -40 -15 -40 4 0 42 29 28 32 58 3 34 -12 -11 -14 -10 -11 6
1 10 -3 20 -9 22 -9 3 -13 -6 -13 -26 0 -25 -8 -37 -42 -62 -49 -35 -64 -22
-25 19 25 26 25 28 9 50 -10 13 -21 20 -25 16z"/>
<path d="M995 575 c-78 -21 -107 -34 -100 -45 10 -16 30 -12 76 15 62 35 77
31 35 -9 -25 -23 -36 -42 -36 -62 0 -24 -7 -32 -43 -48 -35 -16 -39 -20 -20
-23 12 -2 31 1 42 7 19 9 21 8 21 -14 0 -13 -7 -27 -17 -31 -17 -6 -17 -7 0
-16 26 -15 37 -2 37 40 0 30 5 40 24 49 19 8 26 8 29 -1 3 -8 7 -5 12 6 11 25
1 31 -34 19 -30 -11 -31 -10 -31 17 0 21 9 33 38 52 35 23 48 49 27 55 -5 1
-32 -3 -60 -11z"/>
<path d="M717 548 c-4 -10 -9 -24 -11 -31 -3 -12 -30 -28 -71 -42 -19 -7 -19
-7 3 -18 17 -8 26 -6 40 6 23 21 50 24 34 4 -13 -15 1 -43 16 -33 6 4 9 14 6
24 -5 14 -4 15 5 2 8 -12 13 -12 23 -2 10 10 8 14 -10 18 -12 4 -22 11 -22 16
0 5 4 7 8 4 11 -7 72 31 72 45 0 11 -28 9 -62 -5 -11 -5 -18 -2 -21 11 -4 17
-4 17 -10 1z"/>
<path d="M1188 552 c-10 -2 -18 -7 -18 -12 0 -5 -9 -12 -20 -15 -11 -3 -20
-11 -20 -17 0 -5 7 -8 15 -4 30 11 15 -33 -22 -63 -31 -26 -34 -32 -23 -46 16
-20 37 -4 43 33 3 15 4 1 4 -30 -3 -94 17 -72 23 26 5 70 9 91 24 101 22 16
18 32 -6 27z"/>
<path d="M2035 507 c-28 -18 -66 -44 -85 -57 -19 -14 -37 -26 -39 -27 -1 -1 0
-6 4 -12 8 -14 52 8 85 44 14 15 38 36 54 48 28 20 29 20 22 2 -7 -18 -6 -18
14 0 11 10 20 22 20 27 0 16 -26 8 -75 -25z"/>
<path d="M2058 457 c-63 -35 -71 -47 -33 -47 21 0 25 -5 25 -31 0 -30 -2 -31
-35 -27 -41 5 -47 -9 -7 -18 15 -4 32 -11 39 -16 30 -24 37 18 17 94 -3 11 3
19 18 23 41 13 77 56 46 55 -7 -1 -39 -15 -70 -33z"/>
<path d="M680 440 c0 -5 5 -10 10 -10 6 0 3 -11 -6 -25 -19 -28 -12 -44 10
-26 11 9 16 6 25 -19 10 -31 10 -31 78 -28 l68 3 -3 45 c-2 25 -9 50 -14 55
-8 7 -9 5 -5 -8 4 -9 4 -30 1 -46 -5 -25 -11 -30 -44 -33 -67 -6 -77 8 -33 46
15 13 23 28 19 34 -12 19 -26 14 -36 -13 -8 -22 -12 -24 -29 -13 -11 6 -19 14
-19 17 0 4 0 12 -1 19 -1 14 -21 17 -21 2z"/>
<path d="M1800 420 c0 -5 7 -10 15 -10 7 0 18 -6 22 -14 7 -12 11 -12 26 -1
18 13 18 14 -2 24 -25 14 -61 14 -61 1z"/>
<path d="M1695 210 c-15 -17 -16 -22 -4 -36 7 -9 23 -20 36 -25 13 -5 23 -15
23 -24 0 -18 -31 -20 -48 -3 -6 6 -15 8 -19 4 -12 -12 20 -26 52 -24 24 3 31
8 33 30 3 21 -3 30 -27 43 -17 8 -31 20 -31 25 0 19 22 21 41 4 16 -15 19 -15
19 -2 0 9 -10 18 -22 22 -32 8 -33 8 -53 -14z"/>
<path d="M80 213 c0 -4 10 -17 22 -30 l22 -23 -29 -30 c-20 -21 -24 -30 -14
-30 9 0 22 11 29 25 10 19 16 22 27 14 7 -6 13 -18 13 -25 0 -8 11 -14 26 -14
l25 0 -27 35 -27 36 23 24 c18 19 20 25 8 25 -9 0 -19 -10 -22 -22 l-6 -23
-19 23 c-18 20 -51 31 -51 15z"/>
<path d="M230 160 c0 -50 3 -60 18 -60 14 0 17 10 17 60 0 50 -3 60 -17 60
-15 0 -18 -10 -18 -60z"/>
<path d="M310 160 l0 -60 33 0 c45 0 77 25 77 60 0 31 -22 60 -47 60 -14 0
-14 -2 0 -18 21 -23 22 -66 2 -82 -24 -20 -38 2 -34 54 4 39 1 46 -13 46 -15
0 -18 -9 -18 -60z"/>
<path d="M458 160 c-3 -55 -1 -60 17 -60 18 0 20 7 20 60 0 49 -3 60 -17 60
-13 0 -17 -12 -20 -60z"/>
<path d="M554 160 c-22 -42 -27 -60 -18 -60 8 0 14 7 14 15 0 9 7 18 16 22 9
3 12 8 5 12 -6 4 -6 12 -1 21 6 10 13 3 27 -28 11 -26 24 -42 35 -42 15 0 14
7 -10 60 -15 32 -29 59 -32 60 -3 0 -19 -27 -36 -60z"/>
<path d="M681 160 c-1 -44 2 -60 12 -60 9 0 12 10 9 34 -7 58 2 60 41 10 20
-26 37 -45 37 -43 7 80 7 119 -1 119 -5 0 -9 -15 -9 -32 l-1 -33 -27 33 c-42
51 -59 43 -61 -28z"/>
<path d="M898 168 c3 -29 10 -56 16 -60 22 -15 65 -8 76 11 13 25 13 101 0
101 -5 0 -10 -22 -10 -49 0 -35 -4 -51 -16 -55 -26 -10 -34 3 -34 55 0 41 -3
49 -19 49 -16 0 -17 -6 -13 -52z"/>
<path d="M1035 160 c0 -38 4 -60 11 -60 8 0 10 16 7 48 l-4 47 44 -49 45 -48
4 61 c2 39 -1 61 -8 61 -6 0 -9 -13 -6 -32 l4 -33 -34 33 c-51 48 -63 43 -63
-28z"/>
<path d="M1188 160 c3 -43 8 -60 18 -60 10 0 14 15 14 60 0 50 -3 60 -17 60
-16 0 -18 -8 -15 -60z"/>
<path d="M1260 218 c0 -2 13 -30 29 -63 l28 -59 32 62 c24 48 28 62 16 62 -8
0 -14 -3 -13 -7 4 -19 -15 -64 -26 -60 -6 2 -15 18 -20 35 -6 21 -15 32 -27
32 -11 0 -19 -1 -19 -2z"/>
<path d="M1415 160 l0 -60 48 0 c36 0 47 4 47 15 0 12 -4 13 -19 5 -34 -18
-41 -12 -41 40 0 41 3 50 18 50 10 0 23 -5 30 -12 9 -9 12 -8 12 5 0 14 -9 17
-47 17 l-48 0 0 -60z"/>
<path d="M1548 160 c-3 -52 -1 -60 15 -60 14 0 17 10 17 60 0 45 -4 60 -14 60
-10 0 -15 -17 -18 -60z"/>
<path d="M1608 214 c17 -8 15 -43 -3 -50 -13 -5 -12 -11 6 -35 11 -16 30 -29
42 -29 20 0 19 1 -7 29 -23 24 -25 29 -11 35 26 10 15 51 -15 53 -14 1 -19 0
-12 -3z"/>
<path d="M1810 160 c0 -50 3 -60 18 -60 14 0 17 10 17 60 0 50 -3 60 -17 60
-15 0 -18 -10 -18 -60z"/>
<path d="M1870 210 c0 -6 11 -8 26 -4 26 7 26 7 23 -50 -4 -51 -2 -56 16 -56
18 0 20 5 17 55 -4 57 8 71 36 43 9 -9 12 -8 12 5 0 14 -10 17 -65 17 -37 0
-65 -4 -65 -10z"/>
<path d="M2020 213 c0 -5 9 -19 20 -33 11 -14 20 -37 20 -52 0 -18 5 -28 15
-28 9 0 15 9 15 25 0 36 -32 94 -52 95 -10 0 -18 -3 -18 -7z"/>
<path d="M2101 194 c-17 -37 -9 -39 18 -4 15 21 18 30 8 30 -8 0 -19 -12 -26
-26z"/>
</g>
</svg>
