<?xml version="1.0" encoding="utf-8"?>
<!-- Generator: Adobe Illustrator 16.0.0, SVG Export Plug-In . SVG Version: 6.00 Build 0)  -->
<!DOCTYPE svg PUBLIC "-//W3C//DTD SVG 1.1//EN" "http://www.w3.org/Graphics/SVG/1.1/DTD/svg11.dtd">
<svg version="1.1" id="Layer_1" xmlns="http://www.w3.org/2000/svg" xmlns:xlink="http://www.w3.org/1999/xlink" x="0px" y="0px"
	 width="1000px" height="118.793px" viewBox="0 0 1000 118.793" enable-background="new 0 0 1000 118.793" xml:space="preserve">
<path fill="#F05556" d="M0,6.337h80.547v19.48H22.2v25.977h47.246v19.163H22.2v27.088h58.347v19.165H0V6.337L0,6.337z M89.7,117.21
	h20.138V0L89.7,6.337V117.21L89.7,117.21z M200.883,84.264h-61.041c2.693,9.979,11.572,16.632,22.353,16.632
	c6.185,0,11.891-2.376,15.224-7.289h22.354c-6.022,15.207-20.295,25.187-37.893,25.187c-23.784,0-43.125-17.423-43.125-41.182
	c0-23.918,18.392-41.181,41.063-41.181c19.66,0,41.224,14.413,41.224,44.824C201.041,82.204,200.883,83.156,200.883,84.264
	L200.883,84.264L200.883,84.264z M179.161,69.851c-1.743-9.344-9.99-15.841-19.345-15.841c-9.354,0-17.123,6.179-19.817,15.841
	H179.161L179.161,69.851z M268.701,69.216h20.453c-3.805-19.164-20.293-32.629-39.953-32.629c-22.831,0-41.381,17.266-41.381,41.184
	c0,23.758,18.551,41.022,41.381,41.022c19.66,0,36.148-12.829,39.953-31.995h-20.453c-3.169,8.555-10.624,13.938-19.5,13.938
	c-11.892,0-21.404-9.344-21.404-22.649c0-13.619,9.512-22.808,21.404-22.808C258.078,55.278,265.532,60.662,268.701,69.216
	L268.701,69.216z M315.43,15.048l-19.817,6.335v75.395c0,12.195,8.563,20.433,23.146,20.433h19.665V99.312h-13.955
	c-6.182,0-9.039-2.852-9.039-8.079V55.278h22.993V38.172H315.43V15.048L315.43,15.048z M904.333,15.048l-19.817,6.335v75.395
	c0,12.195,8.563,20.433,23.145,20.433h19.668V99.312h-13.954c-6.185,0-9.041-2.852-9.041-8.079V55.278h22.995V38.172h-22.995V15.048
	L904.333,15.048z M366.239,38.172h-20.138v79.038h20.138V75.393c0-10.77,9.512-22.016,25.685-19.48V36.747
	c-12.21-1.427-20.929,5.383-25.685,15.681V38.172L366.239,38.172z M434.474,118.793c-23.149,0-41.857-17.265-41.857-41.022
	c0-23.918,18.708-41.184,41.857-41.184s41.857,17.266,41.857,41.184C476.331,101.528,457.623,118.793,434.474,118.793
	L434.474,118.793z M434.474,55.119c-12.206,0-21.88,9.188-21.88,22.808c0,13.306,9.674,22.652,21.88,22.652
	c12.21,0,21.88-9.347,21.88-22.652C456.354,64.307,446.684,55.119,434.474,55.119L434.474,55.119z M505.473,47.989v-9.817h-20.135
	v79.038h20.135V69.374c0-9.186,7.134-16.471,16.491-16.471c9.67,0,16.488,6.969,16.488,17.262v47.045h20.138V68.583
	c0-18.531-10.628-32.152-29.492-32.152C518.949,36.431,510.229,40.863,505.473,47.989L505.473,47.989L505.473,47.989z
	 M566.939,15.364c0,7.128,5.871,12.987,12.848,12.987c7.134,0,12.995-5.859,12.995-12.987s-5.861-12.989-12.995-12.989
	C572.811,2.375,566.939,8.236,566.939,15.364L566.939,15.364z M569.797,117.21h20.13V38.173h-20.13V117.21L569.797,117.21z
	 M659.734,69.216h20.452c-3.799-19.164-20.295-32.629-39.955-32.629c-22.829,0-41.382,17.266-41.382,41.184
	c0,23.758,18.553,41.022,41.382,41.022c19.66,0,36.156-12.829,39.955-31.995h-20.452c-3.171,8.555-10.618,13.938-19.503,13.938
	c-11.89,0-21.4-9.344-21.4-22.649c0-13.619,9.511-22.808,21.4-22.808C649.116,55.278,656.563,60.662,659.734,69.216L659.734,69.216z
	 M769.92,1.583L827,117.21h-23.152l-11.254-23.604h-46.295l-10.942,23.604h-22.515L769.92,1.583L769.92,1.583z M784.502,76.662
	L769.128,44.35l-14.903,32.313H784.502L784.502,76.662z M851.939,38.172h-20.131v79.038h20.131V75.393
	c0-10.77,9.511-22.016,25.687-19.48V36.747c-12.211-1.427-20.931,5.383-25.687,15.681V38.172L851.939,38.172z M952.119,58.923
	c0-4.754,5.07-7.288,10.625-7.288c9.355,0,16.325,5.387,17.596,13.621h18.388c-1.741-16.946-16.166-28.825-35.668-28.825
	c-17.28,0-30.6,9.027-30.6,24.231c0,16.949,16.176,21.384,29.65,24.869c9.668,2.532,17.918,4.593,17.918,10.296
	c0,4.593-5.235,7.761-12.534,7.761c-9.826,0-17.273-5.543-18.388-13.779h-18.389c1.742,16.946,16.646,28.984,36.776,28.984
	c18.238,0,32.506-9.662,32.506-24.868c0-16.472-16.166-20.907-29.648-24.391C960.524,66.998,952.119,64.782,952.119,58.923
	L952.119,58.923z"/>
</svg>
